<?xml version="1.0" encoding="UTF-8"?>
<svg xmlns="http://www.w3.org/2000/svg" viewBox="0 0 256 256" width="512" height="512">
  <rect width="256" height="256" fill="#050505"/>
  <rect x="10" y="10" width="236" height="236" rx="15" fill="none" stroke="#d99d25" stroke-width="5"/>
  <rect x="20" y="20" width="216" height="216" rx="10" fill="none" stroke="#6b4310" stroke-width="2" opacity="0.9"/>
  <circle cx="128" cy="128" r="94" fill="#f5bd3e" opacity="0.08"/>
  <g fill="#f4b93d" stroke="#f4b93d" stroke-width="9" stroke-linecap="round" stroke-linejoin="round">
    <path d="M74 133l18-42h72l18 42z"/><rect x="67" y="130" width="122" height="50" rx="12" fill="none"/><circle cx="98" cy="181" r="13"/><circle cx="158" cy="181" r="13"/><path d="M98 91l-14 39M158 91l14 39M96 67h54" fill="none"/><circle cx="183" cy="73" r="15" fill="none"/><path d="M195 85l21 21" fill="none"/>
    <path d="M50 54v16M42 62h16M205 55v18M196 64h18M52 207v12M46 213h12" fill="none"/><circle cx="198" cy="198" r="3"/><circle cx="58" cy="118" r="3"/><circle cx="202" cy="126" r="2"/>
  </g>
</svg>
