<?xml version="1.0" encoding="UTF-8"?>
<svg xmlns="http://www.w3.org/2000/svg" viewBox="0 0 256 256" width="512" height="512">
  <rect width="256" height="256" fill="#050505"/>
  <rect x="10" y="10" width="236" height="236" rx="15" fill="none" stroke="#d99d25" stroke-width="5"/>
  <rect x="20" y="20" width="216" height="216" rx="10" fill="none" stroke="#6b4310" stroke-width="2" opacity="0.9"/>
  <circle cx="128" cy="128" r="94" fill="#f5bd3e" opacity="0.08"/>
  <g fill="#f4b93d" stroke="#f4b93d" stroke-width="9" stroke-linecap="round" stroke-linejoin="round">
    <rect x="72" y="82" width="112" height="84" rx="12" fill="none"/><circle cx="128" cy="124" r="22" fill="none"/><path d="M128 102v44M106 124h44M84 181c14 9 40 9 54 0M84 181v18c14 9 40 9 54 0v-18M146 178c14 8 35 8 48 0M146 178v17c14 8 35 8 48 0v-17" fill="none"/>
    <path d="M50 54v16M42 62h16M205 55v18M196 64h18M52 207v12M46 213h12" fill="none"/><circle cx="198" cy="198" r="3"/><circle cx="58" cy="118" r="3"/><circle cx="202" cy="126" r="2"/>
  </g>
</svg>
